<?xml version="1.0" standalone="no"?>
<!DOCTYPE svg PUBLIC "-//W3C//DTD SVG 20010904//EN"
 "http://www.w3.org/TR/2001/REC-SVG-20010904/DTD/svg10.dtd">
<svg version="1.0" xmlns="http://www.w3.org/2000/svg"
 width="260.000000pt" height="260.000000pt" viewBox="0 0 260.000000 260.000000"
 preserveAspectRatio="xMidYMid meet">
<metadata>
Created by potrace 1.11, written by Peter Selinger 2001-2013
</metadata>
<g transform="translate(0.000000,260.000000) scale(0.100000,-0.100000)"
fill="#000000" stroke="none">
<path d="M0 1300 l0 -1300 1300 0 1300 0 0 1300 0 1300 -1300 0 -1300 0 0
-1300z m2510 -10 l0 -1200 -1200 0 -1200 0 0 1200 0 1200 1200 0 1200 0 0
-1200z"/>
<path d="M190 1290 l0 -1120 1120 0 1120 0 0 1120 0 1120 -1120 0 -1120 0 0
-1120z m1285 626 c84 -28 181 -81 228 -124 21 -20 27 -35 27 -68 0 -35 -5 -47
-31 -68 -40 -34 -74 -33 -135 6 -27 17 -78 45 -114 62 -58 28 -75 31 -155 31
-79 0 -97 -4 -148 -28 -98 -48 -139 -129 -98 -194 28 -44 124 -88 261 -118
203 -45 299 -86 382 -163 78 -72 93 -109 93 -222 0 -87 -3 -100 -30 -149 -56
-101 -177 -183 -321 -217 -184 -43 -424 23 -580 159 -39 35 -44 43 -44 82 0
36 5 48 31 69 45 38 72 33 165 -30 102 -68 176 -95 275 -102 204 -12 369 121
305 247 -29 55 -135 106 -286 135 -315 63 -454 174 -455 366 0 94 33 169 103
230 55 49 167 105 237 119 81 16 200 7 290 -23z"/>
</g>
</svg>
